<svg xmlns="http://www.w3.org/2000/svg" viewBox="0 0 24 24" fill="#00D0A1">
  <path d="M12 2a2 2 0 0 1 2 2c0 .74-.4 1.39-1 1.73V7h1a7 7 0 0 1 7 7h1a1 1 0 0 1 1 1v3a1 1 0 0 1-1 1h-1v1a2 2 0 0 1-2 2H5a2 2 0 0 1-2-2v-1H2a1 1 0 0 1-1-1v-3a1 1 0 0 1 1-1h1a7 7 0 0 1 7-7h1V5.73c-.6-.34-1-.99-1-1.73a2 2 0 0 1 2-2M7.5 13A1.5 1.5 0 0 0 6 14.5 1.5 1.5 0 0 0 7.5 16 1.5 1.5 0 0 0 9 14.5 1.5 1.5 0 0 0 7.5 13m9 0a1.5 1.5 0 0 0-1.5 1.5 1.5 1.5 0 0 0 1.5 1.5 1.5 1.5 0 0 0 1.5-1.5 1.5 1.5 0 0 0-1.5-1.5z"/>
</svg>
