<svg xmlns="http://www.w3.org/2000/svg" viewBox="0 0 48 48" fill="none">
  <path d="M47 22c-.5-.4-2.2-1-5-1-1 0-2 .1-3 .3-.4-2.7-2.2-5-5.4-7l-1.1-.7-.8 1c-1 1.3-1.6 3-1.8 4.5a7.5 7.5 0 001.2 5.3c-1.8 1-5.3 1.2-6.2 1.2H2.2l-.1.8c-.4 2.6-.3 10.7 5.8 17C13 48.5 21 50 26.5 50c12.4 0 21.6-5.7 25.9-16 1.7 0 5.4 0 7.3-3.6l.3-.6-.8-.6c-.8-.6-2.5-.8-4.2-.2z" fill="#2496ED"/>
  <rect x="21" y="7" width="5" height="5" fill="#fff"/>
  <rect x="27" y="7" width="5" height="5" fill="#fff"/>
  <rect x="21" y="13" width="5" height="5" fill="#fff"/>
  <rect x="27" y="13" width="5" height="5" fill="#fff"/>
  <rect x="33" y="13" width="5" height="5" fill="#fff"/>
  <rect x="15" y="13" width="5" height="5" fill="#fff"/>
  <rect x="21" y="19" width="5" height="5" fill="#fff"/>
  <rect x="27" y="19" width="5" height="5" fill="#fff"/>
  <rect x="15" y="19" width="5" height="5" fill="#fff"/>
  <rect x="9" y="19" width="5" height="5" fill="#fff"/>
</svg>