<svg xmlns="http://www.w3.org/2000/svg" viewBox="0 0 512 512" fill="none">
  <path d="M409.7 231.4v-58.8c17.9-8.6 30.2-27 30.2-48.2 0-29.5-23.9-53.4-53.4-53.4-29.5 0-53.4 23.9-53.4 53.4 0 21.2 12.4 39.6 30.2 48.2v58.8c-25.4 5.8-48.4 18.4-66.8 36.8l-147.5-112c2.1-7.2 3.3-14.8 3.3-22.7 0-44.3-35.9-80.2-80.2-80.2S-8.1 89.2-8.1 133.5s35.9 80.2 80.2 80.2c18.4 0 35.4-6.2 48.9-16.7l141.5 107.5c-14.7 24.5-23.2 53.2-23.2 83.9 0 89.1 72.2 161.3 161.3 161.3s161.3-72.2 161.3-161.3c0-78.1-55.5-143.2-129.2-158zm-23.2 265c-58.8 0-106.6-47.8-106.6-106.6s47.8-106.6 106.6-106.6 106.6 47.8 106.6 106.6-47.8 106.6-106.6 106.6z" fill="#FF7A59"/>
</svg>
