<svg xmlns="http://www.w3.org/2000/svg" viewBox="0 0 48 48" fill="none">
  <path d="M37.53 20.81a9.05 9.05 0 00-.78-7.42 9.16 9.16 0 00-9.87-4.33 9.05 9.05 0 00-6.8-3.03 9.17 9.17 0 00-8.75 6.36 9.05 9.05 0 00-6.05 4.38 9.17 9.17 0 001.13 10.78 9.05 9.05 0 00.78 7.42 9.16 9.16 0 009.87 4.33 9.03 9.03 0 006.8 3.03 9.17 9.17 0 008.75-6.36 9.05 9.05 0 006.05-4.38 9.17 9.17 0 00-1.13-10.78z" fill="#412991"/>
  <path d="M20.12 38.67a6.79 6.79 0 01-4.37-1.59l.2-.11 7.25-4.19a1.18 1.18 0 00.6-1.03v-10.2l3.06 1.77a.11.11 0 01.06.08v8.48a6.83 6.83 0 01-6.8 6.79z" fill="#412991"/>
  <path d="M11.11 31.72a6.78 6.78 0 01-.81-4.56l.19.12 7.25 4.19a1.18 1.18 0 001.2 0l8.86-5.12v3.54a.11.11 0 01-.05.1l-7.34 4.24a6.83 6.83 0 01-9.3-2.51z" fill="#412991"/>
  <path d="M9.34 17.56a6.78 6.78 0 013.56-2.98v8.62a1.18 1.18 0 00.6 1.03l8.85 5.11-3.06 1.77a.11.11 0 01-.11 0l-7.34-4.24a6.83 6.83 0 01-2.5-9.3z" fill="#412991"/>
  <path d="M36.88 22.86l-8.86-5.12 3.06-1.76a.11.11 0 01.11 0l7.34 4.24a6.82 6.82 0 01-1.05 12.29v-8.62a1.18 1.18 0 00-.6-1.03z" fill="#412991"/>
  <path d="M39.89 16.28l-.2-.12-7.24-4.19a1.18 1.18 0 00-1.2 0l-8.86 5.12V13.55a.11.11 0 01.05-.1l7.34-4.23a6.82 6.82 0 0110.11 7.06z" fill="#412991"/>
  <path d="M18.54 25.75l-3.06-1.77a.11.11 0 01-.06-.08v-8.48a6.82 6.82 0 0111.18-5.21l-.2.11-7.25 4.19a1.18 1.18 0 00-.6 1.03l-.01 10.2z" fill="#412991"/>
</svg>