<svg xmlns="http://www.w3.org/2000/svg" viewBox="0 0 48 48" fill="none">
  <circle cx="24" cy="24" r="22" fill="#25D366"/>
  <path d="M34.6 13.4a14.5 14.5 0 00-22.9 17.4L10 38l7.4-1.9a14.5 14.5 0 007.1 1.8c8 0 14.5-6.5 14.5-14.5 0-3.9-1.5-7.5-4.4-10.2zM24.5 35a12 12 0 01-6.1-1.7l-.4-.3-4.5 1.2 1.2-4.3-.3-.5A12 12 0 1124.5 35z" fill="#fff"/>
  <path d="M31.5 27.3c-.4-.2-2.2-1.1-2.5-1.2-.3-.1-.6-.2-.8.2s-1 1.2-1.2 1.5c-.2.2-.4.3-.8.1-.4-.2-1.6-.6-3-1.8a11.4 11.4 0 01-2.1-2.5c-.2-.4 0-.6.2-.8.2-.2.4-.4.6-.6.2-.2.2-.4.4-.6.1-.2.1-.5 0-.7-.1-.2-1-2.3-1.3-3.2-.3-.8-.7-.7-.9-.7h-.8a1.6 1.6 0 00-1.2.6 4.8 4.8 0 00-1.5 3.6c0 2.1 1.5 4.2 1.8 4.5.2.3 3 4.6 7.3 6.4 1 .5 1.8.7 2.5.9.9.3 1.8.3 2.5.2.8-.1 2.2-.9 2.5-1.8.3-.9.3-1.6.2-1.8-.1-.2-.3-.3-.7-.5z" fill="#25D366"/>
</svg>