<svg xmlns="http://www.w3.org/2000/svg" viewBox="0 0 48 48" fill="none">
  <rect width="48" height="48" rx="8" fill="#96588A"/>
  <path d="M8 14h32a2 2 0 012 2v16a2 2 0 01-2 2H8a2 2 0 01-2-2V16a2 2 0 012-2z" fill="#7B4B76"/>
  <path d="M12 18c0 2.5 1 6 3 6s3-3.5 3-6M18 18c0 2.5 1 6 3 6s3-3.5 3-6M24 18c0 2.5 1 6 3 6s3-3.5 3-6" stroke="#fff" stroke-width="2" stroke-linecap="round"/>
  <circle cx="36" cy="22" r="2" fill="#fff"/>
  <path d="M34 26c1.5 1.5 3.5 1.5 5 0" stroke="#fff" stroke-width="1.5" stroke-linecap="round"/>
</svg>